# xmcd
#
# Track frame offsets:
#	150
#	13757
#	26520
#	42970
#	53657
#	80275
#	95532
#	107212
#	120622
#	133500
#	148135
#	197452
#	212525
#	266440
#	290967
#
# Disc length: 4329
#
# Revision: 5
# Processed by: cddbd v1.5.1PL0 Copyright (c) Steve Scherf et al.
# Submitted via: CDex 1.51
# Normalized: r4:DSETVAR1,TDELIM( - )
#
DISCID=d510e70f
DTITLE=Various Artist - The Smithsonian Collection of Classic Jazz (Revised) - Volume IV
DYEAR=1987
DGENRE=Jazz
TTITLE0=Miles Davis And His Orchestra - Boplicity [Davis, arr. Evans]
TTITLE1=Lennie Tristano Quintet - Subconscious Lee [Konitz]
TTITLE2=Gene Norman's ''Just Jazz'' Featuring Red Norvo And Stan Getz - Body and Soul [excerpt] [Green-Sauer-Heyman-Eyton]
TTITLE3=Sarah Vaughan - All Alone [Berlin, arr. Jones]
TTITLE4=Sarah Vaughan - My Funny Valentine [Rodgers-Hart]
TTITLE5=Thelonious Monk Quartet - Misterioso [Monk]
TTITLE6=Thelonious Monk Quartet - Evidence [Monk]
TTITLE7=Thelonious Monk Quintet - Criss-Cross [Monk]
TTITLE8=Thelonious Monk - Bag's Groove [solo from Miles Davis's All Stars recording] [Jackson]
TTITLE9=Thelonious Monk - I Should Care [Weston-Stordahl-Cahn]
TTITLE10=Horace Silver Quintet - Moon Rays [Silver]
TTITLE11=Miles Davis With Gil Evans's Orchestra - Summertime [Gershwin-Heyward, arr. Evans]
TTITLE12=Charles Mingus Quintet - Haitian Fight Song [Mingus]
TTITLE13=Modern Jazz Quartet - Django [Lewis]
TTITLE14=Sonny Rollings Plus Four - Pent-Up House [abridged] [Rollins]
EXTD=YEAR: 1987
EXTT0=
EXTT1=
EXTT2=
EXTT3=
EXTT4=
EXTT5=
EXTT6=
EXTT7=
EXTT8=
EXTT9=
EXTT10=
EXTT11=
EXTT12=
EXTT13=
EXTT14=
PLAYORDER=
